{
    "asset": {
        "copyright": "2020 (c) Adobe Inc.",
        "generator": "Adobe Dimension - 0f693b0ede4f4f878c948589cb1cd200001139cd",
        "version": "2.0"
    },
    "accessors": [
        {
            "bufferView": 0,
            "componentType": 5126,
            "count": 1881,
            "type": "VEC3",
            "max": [
                0.16179513931274415,
                0.2549784481525421,
                0.009999999776482582
            ],
            "min": [
                -0.16179513931274415,
                -0.2549784481525421,
                -0.009999999776482582
            ]
        },
        {
            "bufferView": 1,
            "componentType": 5126,
            "count": 1881,
            "type": "VEC3"
        },
        {
            "bufferView": 2,
            "componentType": 5126,
            "count": 1881,
            "type": "VEC2"
        },
        {
            "bufferView": 3,
            "componentType": 5125,
            "count": 6594,
            "type": "SCALAR",
            "max": [
                1880.0
            ],
            "min": [
                0.0
            ]
        },
        {
            "bufferView": 4,
            "componentType": 5126,
            "count": 736,
            "type": "VEC3",
            "max": [
                0.0023596324026584627,
                0.06936956942081452,
                0.009999999776482582
            ],
            "min": [
                -0.015477348119020462,
                0.036193713545799258,
                -0.009999999776482582
            ]
        },
        {
            "bufferView": 5,
            "componentType": 5126,
            "count": 736,
            "type": "VEC3"
        },
        {
            "bufferView": 6,
            "componentType": 5126,
            "count": 736,
            "type": "VEC2"
        },
        {
            "bufferView": 7,
            "componentType": 5125,
            "count": 2616,
            "type": "SCALAR",
            "max": [
                735.0
            ],
            "min": [
                0.0
            ]
        },
        {
            "bufferView": 8,
            "componentType": 5126,
            "count": 696,
            "type": "VEC3",
            "max": [
                -0.020639950409531595,
                0.03963865339756012,
                0.009999999776482582
            ],
            "min": [
                -0.05243925005197525,
                0.017689025029540063,
                -0.009999999776482582
            ]
        },
        {
            "bufferView": 9,
            "componentType": 5126,
            "count": 696,
            "type": "VEC3"
        },
        {
            "bufferView": 10,
            "componentType": 5126,
            "count": 696,
            "type": "VEC2"
        },
        {
            "bufferView": 11,
            "componentType": 5125,
            "count": 2472,
            "type": "SCALAR",
            "max": [
                695.0
            ],
            "min": [
                0.0
            ]
        },
        {
            "bufferView": 12,
            "componentType": 5126,
            "count": 686,
            "type": "VEC3",
            "max": [
                -0.010370006784796715,
                0.056941986083984378,
                0.009999999776482582
            ],
            "min": [
                -0.03593090921640396,
                0.028460701927542688,
                -0.009999999776482582
            ]
        },
        {
            "bufferView": 13,
            "componentType": 5126,
            "count": 686,
            "type": "VEC3"
        },
        {
            "bufferView": 14,
            "componentType": 5126,
            "count": 686,
            "type": "VEC2"
        },
        {
            "bufferView": 15,
            "componentType": 5125,
            "count": 2436,
            "type": "SCALAR",
            "max": [
                685.0
            ],
            "min": [
                0.0
            ]
        },
        {
            "bufferView": 16,
            "componentType": 5126,
            "count": 1302,
            "type": "VEC3",
            "max": [
                0.05243925005197525,
                0.036507535725831988,
                0.009999999776482582
            ],
            "min": [
                -0.02780039981007576,
                -0.06936956942081452,
                -0.009999999776482582
            ]
        },
        {
            "bufferView": 17,
            "componentType": 5126,
            "count": 1302,
            "type": "VEC3"
        },
        {
            "bufferView": 18,
            "componentType": 5126,
            "count": 1302,
            "type": "VEC2"
        },
        {
            "bufferView": 19,
            "componentType": 5125,
            "count": 4632,
            "type": "SCALAR",
            "max": [
                1301.0
            ],
            "min": [
                0.0
            ]
        }
    ],
    "bufferViews": [
        {
            "buffer": 0,
            "byteOffset": 0,
            "byteLength": 22572,
            "target": 34962
        },
        {
            "buffer": 0,
            "byteOffset": 22572,
            "byteLength": 22572,
            "target": 34962
        },
        {
            "buffer": 0,
            "byteOffset": 45144,
            "byteLength": 15048,
            "target": 34962
        },
        {
            "buffer": 0,
            "byteOffset": 60192,
            "byteLength": 26376,
            "target": 34963
        },
        {
            "buffer": 0,
            "byteOffset": 86568,
            "byteLength": 8832,
            "target": 34962
        },
        {
            "buffer": 0,
            "byteOffset": 95400,
            "byteLength": 8832,
            "target": 34962
        },
        {
            "buffer": 0,
            "byteOffset": 104232,
            "byteLength": 5888,
            "target": 34962
        },
        {
            "buffer": 0,
            "byteOffset": 110120,
            "byteLength": 10464,
            "target": 34963
        },
        {
            "buffer": 0,
            "byteOffset": 120584,
            "byteLength": 8352,
            "target": 34962
        },
        {
            "buffer": 0,
            "byteOffset": 128936,
            "byteLength": 8352,
            "target": 34962
        },
        {
            "buffer": 0,
            "byteOffset": 137288,
            "byteLength": 5568,
            "target": 34962
        },
        {
            "buffer": 0,
            "byteOffset": 142856,
            "byteLength": 9888,
            "target": 34963
        },
        {
            "buffer": 0,
            "byteOffset": 152744,
            "byteLength": 8232,
            "target": 34962
        },
        {
            "buffer": 0,
            "byteOffset": 160976,
            "byteLength": 8232,
            "target": 34962
        },
        {
            "buffer": 0,
            "byteOffset": 169208,
            "byteLength": 5488,
            "target": 34962
        },
        {
            "buffer": 0,
            "byteOffset": 174696,
            "byteLength": 9744,
            "target": 34963
        },
        {
            "buffer": 0,
            "byteOffset": 184440,
            "byteLength": 15624,
            "target": 34962
        },
        {
            "buffer": 0,
            "byteOffset": 200064,
            "byteLength": 15624,
            "target": 34962
        },
        {
            "buffer": 0,
            "byteOffset": 215688,
            "byteLength": 10416,
            "target": 34962
        },
        {
            "buffer": 0,
            "byteOffset": 226104,
            "byteLength": 18528,
            "target": 34963
        }
    ],
    "buffers": [
        {
            "byteLength": 244632,
            "uri": "3D_T_binary.bin"
        }
    ],
    "cameras": [
        {
            "perspective": {
                "znear": 0.000010000000656873454,
                "yfov": 0.6024156808853149,
                "zfar": 2.0,
                "aspectRatio": 1.3333333730697632
            },
            "type": "perspective",
            "name": "render_camera"
        }
    ],
    "images": [
        {
            "name": "composited_baseColor",
            "uri": "3D_T_images/composited_baseColor.jpg",
            "mimeType": "image/jpeg"
        },
        {
            "name": "composited_roughness",
            "uri": "3D_T_images/composited_roughness.png",
            "mimeType": "image/png"
        },
        {
            "name": "composited_baseColor_0",
            "uri": "3D_T_images/composited_baseColor_0.jpg",
            "mimeType": "image/jpeg"
        },
        {
            "name": "composited_roughness_0",
            "uri": "3D_T_images/composited_roughness_0.png",
            "mimeType": "image/png"
        }
    ],
    "materials": [
        {
            "pbrMetallicRoughness": {
                "baseColorFactor": [
                    1.0,
                    1.0,
                    1.0,
                    0.75
                ],
                "baseColorTexture": {
                    "index": 0
                },
                "metallicFactor": 0.0,
                "metallicRoughnessTexture": {
                    "index": 1
                }
            },
            "alphaMode": "BLEND",
            "doubleSided": true
        },
        {
            "pbrMetallicRoughness": {
                "baseColorFactor": [
                    0.96484375,
                    0.96484375,
                    0.96484375,
                    0.75
                ],
                "metallicFactor": 0.0,
                "roughnessFactor": 0.4000000059604645
            },
            "alphaMode": "BLEND",
            "doubleSided": true
        },
        {
            "pbrMetallicRoughness": {
                "baseColorFactor": [
                    1.0,
                    1.0,
                    1.0,
                    0.75
                ],
                "baseColorTexture": {
                    "index": 2
                },
                "metallicFactor": 0.0,
                "metallicRoughnessTexture": {
                    "index": 3
                }
            },
            "alphaMode": "BLEND",
            "doubleSided": true
        }
    ],
    "meshes": [
        {
            "name": "unnamed 4",
            "primitives": [
                {
                    "attributes": {
                        "TEXCOORD_0": 2,
                        "NORMAL": 1,
                        "POSITION": 0
                    },
                    "indices": 3,
                    "material": 0
                }
            ]
        },
        {
            "name": "unnamed",
            "primitives": [
                {
                    "attributes": {
                        "POSITION": 4,
                        "NORMAL": 5,
                        "TEXCOORD_0": 6
                    },
                    "indices": 7,
                    "material": 1
                }
            ]
        },
        {
            "name": "unnamed 2",
            "primitives": [
                {
                    "attributes": {
                        "TEXCOORD_0": 10,
                        "NORMAL": 9,
                        "POSITION": 8
                    },
                    "indices": 11,
                    "material": 1
                }
            ]
        },
        {
            "name": "unnamed 3",
            "primitives": [
                {
                    "attributes": {
                        "TEXCOORD_0": 14,
                        "NORMAL": 13,
                        "POSITION": 12
                    },
                    "indices": 15,
                    "material": 1
                }
            ]
        },
        {
            "name": "unnamed 5",
            "primitives": [
                {
                    "attributes": {
                        "POSITION": 16,
                        "NORMAL": 17,
                        "TEXCOORD_0": 18
                    },
                    "indices": 19,
                    "material": 2
                }
            ]
        }
    ],
    "nodes": [
        {
            "translation": [
                0.4826134443283081,
                0.26427534222602847,
                0.40111371874809267
            ],
            "rotation": [
                -0.12059047073125839,
                0.379409521818161,
                0.04995020851492882,
                0.9159756302833557
            ],
            "scale": [
                1.0,
                1.0,
                0.9999999403953552
            ],
            "camera": 0,
            "name": "render_camera_n3d"
        },
        {
            "translation": [
                0.03795637562870979,
                0.14672446250915528,
                -0.013990935869514943
            ],
            "scale": [
                0.5754387378692627,
                0.5754387378692627,
                0.5754387378692627
            ],
            "mesh": 0,
            "name": "unnamed 4"
        },
        {
            "children": [
                3,
                4,
                5,
                6
            ],
            "translation": [
                -0.0786203145980835,
                0.2801371216773987,
                0.009745330549776554
            ],
            "name": "アセット 1"
        },
        {
            "mesh": 1,
            "name": "unnamed"
        },
        {
            "mesh": 2,
            "name": "unnamed 2"
        },
        {
            "mesh": 3,
            "name": "unnamed 3"
        },
        {
            "mesh": 4,
            "name": "unnamed 5"
        }
    ],
    "samplers": [
        {},
        {},
        {},
        {}
    ],
    "scenes": [
        {
            "nodes": [
                0,
                1,
                2
            ],
            "name": "scene"
        }
    ],
    "textures": [
        {
            "name": "composited_baseColor",
            "sampler": 0,
            "source": 0
        },
        {
            "name": "composited_roughness",
            "sampler": 1,
            "source": 1
        },
        {
            "name": "composited_baseColor",
            "sampler": 2,
            "source": 2
        },
        {
            "name": "composited_roughness",
            "sampler": 3,
            "source": 3
        }
    ],
    "scene": 0
}