{
    "asset": {
        "copyright": "2020 (c) Adobe Inc.",
        "generator": "Adobe Dimension - 0f693b0ede4f4f878c948589cb1cd200001139cd",
        "version": "2.0"
    },
    "accessors": [
        {
            "bufferView": 0,
            "componentType": 5126,
            "count": 1004,
            "type": "VEC3",
            "max": [
                -0.04358983784914017,
                0.023290295153856279,
                0.017007874324917795
            ],
            "min": [
                -0.11235194653272629,
                -0.023290295153856279,
                -0.017007874324917795
            ]
        },
        {
            "bufferView": 1,
            "componentType": 5126,
            "count": 1004,
            "type": "VEC3"
        },
        {
            "bufferView": 2,
            "componentType": 5126,
            "count": 1004,
            "type": "VEC2"
        },
        {
            "bufferView": 3,
            "componentType": 5125,
            "count": 3564,
            "type": "SCALAR",
            "max": [
                1003.0
            ],
            "min": [
                0.0
            ]
        },
        {
            "bufferView": 4,
            "componentType": 5126,
            "count": 84,
            "type": "VEC3",
            "max": [
                0.032628320157527927,
                0.023284459486603738,
                0.017007874324917795
            ],
            "min": [
                -0.04417199641466141,
                -0.023290295153856279,
                -0.017007874324917795
            ]
        },
        {
            "bufferView": 5,
            "componentType": 5126,
            "count": 84,
            "type": "VEC3"
        },
        {
            "bufferView": 6,
            "componentType": 5126,
            "count": 84,
            "type": "VEC2"
        },
        {
            "bufferView": 7,
            "componentType": 5125,
            "count": 216,
            "type": "SCALAR",
            "max": [
                83.0
            ],
            "min": [
                0.0
            ]
        },
        {
            "bufferView": 8,
            "componentType": 5126,
            "count": 91,
            "type": "VEC3",
            "max": [
                0.11235194653272629,
                0.023290295153856279,
                0.017007874324917795
            ],
            "min": [
                0.03996904194355011,
                -0.023290295153856279,
                -0.017007874324917795
            ]
        },
        {
            "bufferView": 9,
            "componentType": 5126,
            "count": 91,
            "type": "VEC3"
        },
        {
            "bufferView": 10,
            "componentType": 5126,
            "count": 91,
            "type": "VEC2"
        },
        {
            "bufferView": 11,
            "componentType": 5125,
            "count": 222,
            "type": "SCALAR",
            "max": [
                90.0
            ],
            "min": [
                0.0
            ]
        },
        {
            "bufferView": 12,
            "componentType": 5126,
            "count": 1881,
            "type": "VEC3",
            "max": [
                0.16179513931274415,
                0.2549784481525421,
                0.009999999776482582
            ],
            "min": [
                -0.16179513931274415,
                -0.2549784481525421,
                -0.009999999776482582
            ]
        },
        {
            "bufferView": 13,
            "componentType": 5126,
            "count": 1881,
            "type": "VEC3"
        },
        {
            "bufferView": 14,
            "componentType": 5126,
            "count": 1881,
            "type": "VEC2"
        },
        {
            "bufferView": 15,
            "componentType": 5125,
            "count": 6594,
            "type": "SCALAR",
            "max": [
                1880.0
            ],
            "min": [
                0.0
            ]
        }
    ],
    "bufferViews": [
        {
            "buffer": 0,
            "byteOffset": 0,
            "byteLength": 12048,
            "target": 34962
        },
        {
            "buffer": 0,
            "byteOffset": 12048,
            "byteLength": 12048,
            "target": 34962
        },
        {
            "buffer": 0,
            "byteOffset": 24096,
            "byteLength": 8032,
            "target": 34962
        },
        {
            "buffer": 0,
            "byteOffset": 32128,
            "byteLength": 14256,
            "target": 34963
        },
        {
            "buffer": 0,
            "byteOffset": 46384,
            "byteLength": 1008,
            "target": 34962
        },
        {
            "buffer": 0,
            "byteOffset": 47392,
            "byteLength": 1008,
            "target": 34962
        },
        {
            "buffer": 0,
            "byteOffset": 48400,
            "byteLength": 672,
            "target": 34962
        },
        {
            "buffer": 0,
            "byteOffset": 49072,
            "byteLength": 864,
            "target": 34963
        },
        {
            "buffer": 0,
            "byteOffset": 49936,
            "byteLength": 1092,
            "target": 34962
        },
        {
            "buffer": 0,
            "byteOffset": 51028,
            "byteLength": 1092,
            "target": 34962
        },
        {
            "buffer": 0,
            "byteOffset": 52120,
            "byteLength": 728,
            "target": 34962
        },
        {
            "buffer": 0,
            "byteOffset": 52848,
            "byteLength": 888,
            "target": 34963
        },
        {
            "buffer": 0,
            "byteOffset": 53736,
            "byteLength": 22572,
            "target": 34962
        },
        {
            "buffer": 0,
            "byteOffset": 76308,
            "byteLength": 22572,
            "target": 34962
        },
        {
            "buffer": 0,
            "byteOffset": 98880,
            "byteLength": 15048,
            "target": 34962
        },
        {
            "buffer": 0,
            "byteOffset": 113928,
            "byteLength": 26376,
            "target": 34963
        }
    ],
    "buffers": [
        {
            "byteLength": 140304,
            "uri": "3D_T_binary.bin"
        }
    ],
    "cameras": [
        {
            "perspective": {
                "znear": 0.000010000000656873454,
                "yfov": 0.6024156808853149,
                "zfar": 2.0,
                "aspectRatio": 1.3333333730697632
            },
            "type": "perspective",
            "name": "render_camera"
        }
    ],
    "images": [
        {
            "name": "composited_baseColor",
            "uri": "3D_T_images/composited_baseColor.jpg",
            "mimeType": "image/jpeg"
        },
        {
            "name": "composited_roughness",
            "uri": "3D_T_images/composited_roughness.png",
            "mimeType": "image/png"
        }
    ],
    "materials": [
        {
            "pbrMetallicRoughness": {
                "baseColorFactor": [
                    0.7454035878181458,
                    0.0,
                    0.0,
                    1.0
                ],
                "metallicFactor": 0.0,
                "roughnessFactor": 0.028999999165534974
            },
            "name": "プラスチック 2",
            "doubleSided": true
        },
        {
            "pbrMetallicRoughness": {
                "baseColorFactor": [
                    0.6583756804466248,
                    0.0,
                    0.0,
                    1.0
                ],
                "metallicFactor": 0.0,
                "roughnessFactor": 0.028999999165534974
            },
            "name": "プラスチック",
            "doubleSided": true
        },
        {
            "pbrMetallicRoughness": {
                "baseColorFactor": [
                    0.6375971436500549,
                    0.0,
                    0.0,
                    1.0
                ],
                "metallicFactor": 0.0,
                "roughnessFactor": 0.028999999165534974
            },
            "name": "プラスチック 3",
            "doubleSided": true
        },
        {
            "pbrMetallicRoughness": {
                "baseColorFactor": [
                    1.0,
                    1.0,
                    1.0,
                    0.75
                ],
                "baseColorTexture": {
                    "index": 0
                },
                "metallicFactor": 0.0,
                "metallicRoughnessTexture": {
                    "index": 1
                }
            },
            "alphaMode": "BLEND",
            "doubleSided": true
        }
    ],
    "meshes": [
        {
            "name": "unnamed",
            "primitives": [
                {
                    "attributes": {
                        "POSITION": 0,
                        "NORMAL": 1,
                        "TEXCOORD_0": 2
                    },
                    "indices": 3,
                    "material": 0
                }
            ]
        },
        {
            "name": "unnamed 2",
            "primitives": [
                {
                    "attributes": {
                        "TEXCOORD_0": 6,
                        "NORMAL": 5,
                        "POSITION": 4
                    },
                    "indices": 7,
                    "material": 1
                }
            ]
        },
        {
            "name": "unnamed 3",
            "primitives": [
                {
                    "attributes": {
                        "POSITION": 8,
                        "NORMAL": 9,
                        "TEXCOORD_0": 10
                    },
                    "indices": 11,
                    "material": 2
                }
            ]
        },
        {
            "name": "unnamed 4",
            "primitives": [
                {
                    "attributes": {
                        "POSITION": 12,
                        "NORMAL": 13,
                        "TEXCOORD_0": 14
                    },
                    "indices": 15,
                    "material": 3
                }
            ]
        }
    ],
    "nodes": [
        {
            "translation": [
                0.4435388147830963,
                0.271068274974823,
                0.45224490761756899
            ],
            "rotation": [
                -0.12059047073125839,
                0.379409521818161,
                0.04995020851492882,
                0.9159756302833557
            ],
            "scale": [
                1.0,
                1.0,
                0.9999999403953552
            ],
            "camera": 0,
            "name": "render_camera_n3d"
        },
        {
            "children": [
                2,
                3,
                4
            ],
            "translation": [
                -0.056461188942193988,
                0.00905626267194748,
                -0.03628121688961983
            ],
            "scale": [
                0.38884279131889346,
                0.38884279131889346,
                0.38884279131889346
            ],
            "name": "dam"
        },
        {
            "mesh": 0,
            "name": "unnamed"
        },
        {
            "mesh": 1,
            "name": "unnamed 2"
        },
        {
            "mesh": 2,
            "name": "unnamed 3"
        },
        {
            "translation": [
                0.007045244798064232,
                0.15351732075214387,
                0.03714022412896156
            ],
            "scale": [
                0.5754387378692627,
                0.5754387378692627,
                0.5754387378692627
            ],
            "mesh": 3,
            "name": "unnamed 4"
        }
    ],
    "samplers": [
        {},
        {}
    ],
    "scenes": [
        {
            "nodes": [
                0,
                1,
                5
            ],
            "name": "scene"
        }
    ],
    "textures": [
        {
            "name": "composited_baseColor",
            "sampler": 0,
            "source": 0
        },
        {
            "name": "composited_roughness",
            "sampler": 1,
            "source": 1
        }
    ],
    "scene": 0
}